<svg width="193" height="50" viewBox="0 0 193 50" fill="none" xmlns="http://www.w3.org/2000/svg">
<path d="M7.05617 18.4881C7.49134 16.7142 8.39225 14.3733 9.50703 12.8939C10.6218 11.4146 12.0318 10.1592 13.6564 9.19951C15.2811 8.23983 17.0886 7.59465 18.9758 7.30079C20.863 7.00694 22.7929 7.07017 24.6553 7.48687C26.5177 7.90358 28.1121 8.86572 29.6662 9.92954C30.966 11.0248 32.0303 12.2971 32.6083 13.9203C33.1864 15.5435 33.4385 17.0414 33.0909 19.0845C32.7432 21.1276 32.2646 21.715 31.3023 23.2235C31.6096 21.9707 31.653 20.6862 31.4348 19.4232C31.2166 18.1601 30.7395 16.9501 30.0307 15.8621C29.3218 14.7742 28.5435 13.8011 27.452 13.0539C26.3605 12.3067 25.1816 11.683 23.9049 11.2835C22.6163 10.8803 21.4592 10.6789 20.0091 10.6886C18.5589 10.6983 17.2499 11.116 15.8448 11.4337C14.6962 11.6934 13.6207 12.1391 12.3634 12.8381C11.0369 13.5756 7.40978 17.2457 7.05617 18.4881Z" fill="url(#paint0_linear_3185_34948)"/>
<path d="M10.3012 38.6342C9.01083 37.2922 7.49192 35.2635 6.83898 33.5508C6.18603 31.8382 5.89313 30.0186 5.97699 28.196C6.06085 26.3734 6.51984 24.5835 7.32774 22.9284C8.13564 21.2734 9.27664 19.7856 10.6856 18.55C12.0945 17.3145 13.8247 16.5975 15.6202 15.9695C17.2997 15.56 19 15.436 20.7302 15.8934C22.4605 16.3508 23.8988 16.9949 25.4714 18.4193C27.044 19.8437 27.283 20.5521 28.0469 22.1607C27.1357 21.213 26.0484 20.4558 24.8324 19.9171C23.6164 19.3784 22.3005 19.0739 20.96 19.0211C19.6194 18.9682 18.3391 19.0349 17.078 19.4759C15.8169 19.917 14.6136 20.4965 13.5492 21.2794C12.4749 22.0695 11.6493 22.8695 10.8414 24.0197C10.0336 25.1699 9.65837 26.4382 9.14243 27.7261C8.72067 28.7789 8.5011 29.8788 8.39838 31.2647C8.29002 32.7269 9.42493 37.6557 10.3012 38.6342Z" fill="#0E3079"/>
<path d="M30.2073 47.468C28.3287 47.7852 25.7209 47.917 23.8578 47.5216C21.9947 47.1262 20.2309 46.3835 18.667 45.3357C17.1032 44.288 15.7699 42.9558 14.7434 41.4152C13.7168 39.8746 13.017 38.1558 12.6841 36.3569C12.3511 34.558 12.6487 32.7794 13.0599 30.9961C13.6017 29.4237 14.4067 27.9881 15.741 26.841C17.0754 25.6939 18.4175 24.8823 20.5207 24.3822C22.624 23.8821 23.3779 24.0707 25.2088 24.3208C23.8821 24.5448 22.6288 25.0129 21.4993 25.7022C20.3698 26.3915 19.3933 27.2872 18.6257 28.3381C17.858 29.389 17.2283 30.4557 16.9394 31.7082C16.6505 32.9607 16.5149 34.2413 16.6336 35.5193C16.7534 36.8091 17.0156 37.9041 17.5964 39.1731C18.1773 40.4421 19.0952 41.4264 19.9547 42.5344C20.6572 43.4402 21.5101 44.2085 22.6783 45.0366C23.9108 45.9102 28.8723 47.6473 30.2073 47.468Z" fill="#0E3079"/>
<path d="M48.747 32.8185C48.3526 34.6011 47.5056 36.9602 46.425 38.4625C45.3444 39.9649 43.9635 41.2494 42.3613 42.2429C40.759 43.2363 38.9667 43.9191 37.0867 44.2523C35.2067 44.5856 33.2758 44.5627 31.4043 44.185C29.5327 43.8074 27.9167 42.8788 26.3386 41.8477C25.014 40.78 23.9208 39.5302 23.3057 37.9194C22.6905 36.3087 22.4041 34.8164 22.7049 32.7666C23.0056 30.7167 23.4707 30.1194 24.3981 28.5912C24.1196 29.8501 24.1056 31.1352 24.3527 32.3934C24.5998 33.6515 25.1046 34.8513 25.8382 35.9242C26.5718 36.997 27.3722 37.9536 28.4806 38.6778C29.589 39.402 30.782 40.0009 32.0675 40.3736C33.365 40.7498 34.5264 40.927 35.976 40.887C37.4256 40.8469 38.7247 40.4019 40.1222 40.055C41.2645 39.7714 42.3296 39.3032 43.5706 38.5781C44.8798 37.8131 48.422 34.068 48.747 32.8185Z" fill="url(#paint1_linear_3185_34948)"/>
<path d="M44.9981 12.1325C46.3186 13.4474 47.8832 15.4442 48.5748 17.143C49.2665 18.8417 49.6006 20.6548 49.5581 22.4787C49.5156 24.3026 49.0973 26.1016 48.3271 27.773C47.557 29.4444 46.45 30.9554 45.0694 32.2198C43.6888 33.4843 41.9753 34.2369 40.1945 34.9018C38.5247 35.346 36.8276 35.5051 35.0874 35.0836C33.3472 34.6622 31.8946 34.048 30.29 32.6564C28.6855 31.2649 28.4304 30.5616 27.6302 28.9691C28.5628 29.8978 29.667 30.6324 30.8949 31.1458C32.1228 31.6592 33.4453 31.9363 34.7867 31.9614C36.1282 31.9865 37.4067 31.8934 38.6575 31.4264C39.9082 30.9593 41.0982 30.3551 42.1446 29.5504C43.2006 28.7382 44.0079 27.9213 44.7895 26.7547C45.5711 25.5881 45.9174 24.3122 46.404 23.0139C46.8018 21.9527 46.9964 20.8485 47.0676 19.4608C47.1428 17.9967 45.8964 13.0925 44.9981 12.1325Z" fill="url(#paint2_linear_3185_34948)"/>
<path d="M23.4024 4.41249C25.2203 3.85978 27.7867 3.39824 29.6882 3.55373C31.5898 3.70923 33.4413 4.22162 35.1371 5.06165C36.8328 5.90168 38.3396 7.05289 39.5714 8.44957C40.8032 9.84624 41.7359 11.461 42.3162 13.2017C42.8965 14.9424 42.849 16.743 42.6894 18.5627C42.3712 20.1899 41.7731 21.7149 40.6102 23.0211C39.4473 24.3274 38.2299 25.3021 36.2149 26.0646C34.1999 26.8271 33.4264 26.7358 31.5769 26.7203C32.8608 26.3299 34.0378 25.7069 35.0614 24.8804C36.085 24.0539 36.9282 23.0423 37.5428 21.9033C38.1574 20.7643 38.6332 19.6272 38.7453 18.3491C38.8573 17.0711 38.8136 15.7847 38.5182 14.5331C38.22 13.2698 37.8078 12.2178 37.0555 11.0338C36.3033 9.84972 35.2566 8.99065 34.2506 8.00147C33.4282 7.19286 32.476 6.53958 31.2029 5.86707C29.8599 5.15758 24.7007 4.06542 23.4024 4.41249Z" fill="url(#paint3_linear_3185_34948)"/>
<path d="M61.4062 33V16.0898H64.9453V23.8242H65.0273L71.2266 16.0898H75.1641L69.1055 23.5547L75.5977 33H71.3672L66.5273 25.8633L64.9453 27.8203V33H61.4062ZM81.7383 33.2578C77.918 33.2578 75.5156 30.8086 75.5156 26.7188V26.6953C75.5156 22.6523 77.9766 20.1797 81.7266 20.1797C85.4883 20.1797 87.9609 22.6289 87.9609 26.6953V26.7188C87.9609 30.8203 85.5352 33.2578 81.7383 33.2578ZM81.75 30.5742C83.4141 30.5742 84.4805 29.168 84.4805 26.7188V26.6953C84.4805 24.2695 83.3906 22.8633 81.7266 22.8633C80.0742 22.8633 78.9961 24.2695 78.9961 26.6953V26.7188C78.9961 29.1797 80.0625 30.5742 81.75 30.5742ZM89.7305 33V20.4375H93.1523V22.6289H93.2227C93.5977 21.082 94.6172 20.1797 96.082 20.1797C96.457 20.1797 96.8086 20.2383 97.0664 20.3086V23.3203C96.7852 23.2031 96.3164 23.1328 95.8242 23.1328C94.1367 23.1328 93.1523 24.1406 93.1523 25.9688V33H89.7305ZM98.4727 33V20.4375H101.895V22.6289H101.965C102.34 21.082 103.359 20.1797 104.824 20.1797C105.199 20.1797 105.551 20.2383 105.809 20.3086V23.3203C105.527 23.2031 105.059 23.1328 104.566 23.1328C102.879 23.1328 101.895 24.1406 101.895 25.9688V33H98.4727ZM112.512 33.2578C108.668 33.2578 106.336 30.7617 106.336 26.7422V26.7305C106.336 22.7344 108.691 20.1797 112.371 20.1797C116.051 20.1797 118.359 22.6758 118.359 26.4727V27.5273H109.711C109.746 29.5312 110.836 30.7031 112.582 30.7031C113.988 30.7031 114.844 29.9297 115.09 29.2266L115.113 29.1562H118.254L118.219 29.2852C117.832 31.1367 116.098 33.2578 112.512 33.2578ZM112.43 22.7344C111.023 22.7344 109.969 23.6719 109.746 25.3711H115.078C114.867 23.6367 113.848 22.7344 112.43 22.7344ZM120.129 33V20.4375H123.551V22.5H123.621C124.266 21.0586 125.555 20.1797 127.453 20.1797C130.219 20.1797 131.789 21.9492 131.789 24.8906V33H128.367V25.5938C128.367 23.9531 127.594 23.0156 126.059 23.0156C124.523 23.0156 123.551 24.1406 123.551 25.7812V33H120.129ZM139.699 33.2578C135.867 33.2578 133.5 30.7617 133.5 26.707V26.6953C133.5 22.6758 135.902 20.1797 139.664 20.1797C143.074 20.1797 145.242 22.2773 145.371 24.9961V25.0781H142.195L142.172 24.9727C141.961 23.7773 141.129 22.8633 139.711 22.8633C138.035 22.8633 136.98 24.3047 136.98 26.707V26.7188C136.98 29.1797 138.035 30.5742 139.723 30.5742C141.094 30.5742 141.949 29.7305 142.184 28.4648L142.195 28.3594H145.383V28.4297C145.219 31.1719 143.051 33.2578 139.699 33.2578ZM149.004 37.1367C148.336 37.1367 147.656 37.0547 147.258 36.9844V34.4414C147.504 34.4883 147.902 34.5586 148.406 34.5586C149.426 34.5586 149.988 34.2656 150.293 33.4102L150.445 33L146.004 20.4375H149.766L152.414 30.2578H152.508L155.168 20.4375H158.777L154.465 33.2227C153.48 36.1875 151.793 37.1367 149.004 37.1367Z" fill="#0E3079"/>
<defs>
<linearGradient id="paint0_linear_3185_34948" x1="33.6472" y1="16.9682" x2="8.91738" y2="10.9013" gradientUnits="userSpaceOnUse">
<stop stop-color="#1384B4"/>
<stop offset="1" stop-color="#30A2D2"/>
</linearGradient>
<linearGradient id="paint1_linear_3185_34948" x1="36.2592" y1="30.2986" x2="33.3767" y2="44.5831" gradientUnits="userSpaceOnUse">
<stop stop-color="#091735"/>
<stop offset="1" stop-color="#0F3381"/>
</linearGradient>
<linearGradient id="paint2_linear_3185_34948" x1="35.7862" y1="20.5693" x2="45.8237" y2="31.529" gradientUnits="userSpaceOnUse">
<stop stop-color="#091735"/>
<stop offset="1" stop-color="#0F3381"/>
</linearGradient>
<linearGradient id="paint3_linear_3185_34948" x1="27.2745" y1="16.0272" x2="41.6594" y2="11.2317" gradientUnits="userSpaceOnUse">
<stop stop-color="#091735"/>
<stop offset="1" stop-color="#0F3381"/>
</linearGradient>
</defs>
</svg>
